<?xml version="1.0" standalone="no"?>
<!DOCTYPE svg PUBLIC "-//W3C//DTD SVG 20010904//EN"
 "http://www.w3.org/TR/2001/REC-SVG-20010904/DTD/svg10.dtd">
<svg version="1.0" xmlns="http://www.w3.org/2000/svg"
 width="1024.000000pt" height="1024.000000pt" viewBox="0 0 1024.000000 1024.000000"
 preserveAspectRatio="xMidYMid meet">
<metadata>
Created by potrace 1.14, written by Peter Selinger 2001-2017
</metadata>
<g transform="translate(0.000000,1024.000000) scale(0.100000,-0.100000)"
fill="#000000" stroke="none">
<path d="M0 5120 l0 -5120 5120 0 5120 0 0 5120 0 5120 -5120 0 -5120 0 0
-5120z m5176 4070 c79 0 104 -18 111 -81 4 -38 1 -50 -21 -76 l-27 -32 21 -40
c26 -51 26 -51 -10 -51 -24 0 -33 6 -41 27 -14 38 -38 63 -60 63 -12 0 -19
-11 -24 -41 -6 -34 -10 -40 -28 -37 -21 3 -22 8 -25 142 l-3 138 23 -6 c13 -3
51 -6 84 -6z m-264 -128 c38 -67 66 -127 63 -132 -13 -20 -52 -10 -64 16 -9
20 -17 25 -34 20 -12 -3 -39 -6 -59 -6 -32 0 -39 -4 -44 -25 -5 -21 -12 -25
-40 -25 -19 0 -34 4 -34 10 0 12 75 202 96 242 9 18 22 28 31 26 9 -2 48 -58
85 -126z m596 98 c45 -7 84 -15 86 -19 2 -3 0 -16 -5 -28 -7 -18 -13 -21 -42
-16 l-33 5 -13 -83 c-17 -117 -21 -129 -40 -129 -36 0 -38 12 -21 117 l16 103
-38 7 c-22 5 -39 11 -39 16 1 4 1 16 1 26 0 15 6 19 23 16 12 -2 59 -9 105
-15z m-924 -137 c17 -67 28 -124 25 -127 -2 -2 -16 -7 -30 -11 -25 -6 -26 -4
-44 77 l-18 83 -27 -83 c-15 -45 -29 -85 -32 -87 -2 -3 -26 24 -53 60 -27 35
-50 63 -51 62 -1 -1 3 -33 8 -71 10 -74 6 -84 -32 -88 -23 -3 -24 0 -43 125
-11 70 -17 130 -15 133 3 2 19 9 36 13 30 9 32 7 73 -55 23 -35 45 -64 50 -64
5 0 18 34 30 75 22 74 31 85 74 82 16 -2 24 -21 49 -124z m1168 66 c-3 -25
-39 -191 -48 -222 -5 -15 -12 -17 -32 -12 -36 9 -36 9 -24 47 6 18 20 76 32
129 l21 97 27 -7 c21 -6 26 -13 24 -32z m272 -178 c16 -78 26 -144 23 -147
-11 -11 -60 10 -64 27 -4 13 -24 24 -60 35 -48 14 -57 14 -71 1 -13 -10 -25
-12 -50 -5 l-33 9 33 37 c18 21 64 72 102 115 39 43 75 76 80 74 6 -2 24 -68
40 -146z m232 56 l21 -12 -33 -85 c-18 -47 -33 -90 -34 -96 0 -6 25 -22 55
-35 57 -25 63 -34 43 -62 -12 -16 -19 -15 -98 18 -46 20 -86 37 -87 39 -2 1
15 47 38 102 22 54 45 109 50 122 10 25 15 26 45 9z m-2547 -95 c38 -20 71
-73 71 -111 0 -43 -38 -108 -73 -124 -51 -24 -109 -47 -117 -47 -10 0 -104
239 -97 246 14 14 126 54 152 54 17 0 46 -8 64 -18z m-345 -118 c11 -30 -3
-49 -54 -75 -48 -23 -50 -25 -36 -44 14 -20 15 -20 61 3 37 18 50 20 61 11 24
-20 15 -35 -36 -59 -39 -18 -50 -29 -50 -47 0 -13 2 -23 5 -23 3 0 37 16 75
35 65 33 70 34 70 15 0 -11 5 -20 10 -20 6 0 10 -4 10 -10 0 -8 -165 -100
-196 -108 -7 -2 -15 10 -18 25 -4 15 -26 70 -48 121 -27 61 -37 97 -31 103 11
11 154 88 164 89 4 0 10 -7 13 -16z m3439 -164 c-1 -78 -4 -144 -7 -147 -2 -2
-18 3 -35 12 -21 10 -31 23 -31 38 0 16 -12 28 -43 45 -38 20 -47 21 -70 11
-22 -10 -32 -10 -52 1 -14 7 -25 16 -25 20 0 18 237 172 255 166 6 -2 9 -58 8
-146z m-1350 116 c155 -22 381 -77 564 -137 545 -177 933 -416 1337 -824 345
-348 624 -773 793 -1210 76 -195 77 -175 -9 -176 -40 -1 -82 -2 -93 -1 -152 1
-603 -20 -690 -33 -118 -18 -278 -61 -283 -75 -2 -5 -10 -6 -19 -3 -11 4 -14
2 -9 -5 4 -7 -3 -17 -19 -24 -18 -8 -22 -14 -13 -20 7 -4 18 -8 23 -8 6 0 3 5
-5 10 -9 6 -10 10 -3 10 6 0 15 -5 18 -10 4 -6 11 -8 16 -5 5 3 6 0 3 -8 -4
-11 17 -15 106 -20 127 -7 392 -45 622 -88 164 -30 508 -105 514 -112 9 -9 53
-350 57 -439 5 -114 18 -107 -138 -78 -59 11 -210 36 -334 55 -124 19 -257 41
-296 48 l-70 14 45 6 c25 4 144 10 265 13 l221 7 -11 71 -11 71 -83 17 c-46 9
-129 22 -185 28 -103 12 -546 24 -513 14 9 -3 15 -10 11 -15 -3 -5 -10 -6 -16
-3 -6 4 -8 2 -5 -4 4 -5 16 -8 27 -5 11 3 17 9 14 14 -8 14 10 11 32 -5 10 -8
15 -18 11 -22 -4 -5 -12 -2 -17 6 -6 9 -10 10 -10 3 0 -6 5 -15 10 -18 6 -3
10 -11 10 -16 0 -6 -6 -7 -12 -3 -15 9 9 -24 32 -44 8 -8 10 -11 4 -8 -7 3
-17 -1 -24 -9 -7 -8 -16 -12 -21 -9 -5 3 -9 0 -9 -6 0 -6 -5 -8 -12 -4 -7 4
-8 3 -4 -5 8 -12 19 -8 47 16 14 11 18 11 29 -2 10 -12 9 -16 -4 -21 -9 -3
-13 -10 -10 -15 3 -6 1 -16 -6 -24 -8 -10 -8 -15 1 -21 7 -4 9 -3 6 3 -4 6 0
13 8 17 9 3 15 -1 15 -11 0 -12 7 -14 28 -10 34 7 63 -7 36 -17 -9 -3 -14 -9
-11 -13 9 -8 -11 -43 -25 -43 -6 0 -3 9 8 21 10 11 14 20 9 19 -25 -5 -28 2
-5 15 14 8 19 14 12 15 -8 0 -34 -20 -58 -46 -24 -25 -49 -42 -55 -38 -6 3 -5
-3 3 -15 7 -11 19 -23 27 -26 10 -4 9 0 -4 15 -21 23 -8 27 21 6 15 -12 17
-18 8 -34 -11 -17 -8 -19 40 -20 211 -8 641 -66 668 -91 4 -3 -70 -5 -163 -3
-94 2 -210 -1 -257 -7 -111 -13 -312 -52 -312 -60 0 -4 82 -19 183 -35 168
-26 224 -36 455 -84 l82 -17 -6 -40 c-3 -22 -20 -103 -38 -180 l-32 -140 -35
1 c-19 1 -99 12 -179 24 -120 18 -463 38 -449 26 15 -13 50 -26 45 -17 -5 7 3
11 21 11 19 0 24 -3 15 -9 -10 -6 -9 -10 7 -14 12 -3 21 -11 20 -19 0 -10 -2
-10 -6 0 -2 6 -12 12 -21 12 -14 0 -14 -2 -3 -9 9 -6 11 -16 5 -32 -4 -13 -7
-27 -6 -31 3 -11 -6 -10 -31 3 l-22 12 20 -21 c11 -11 22 -19 25 -19 19 1 60
-26 60 -40 0 -15 -2 -15 -14 3 -12 15 -17 17 -27 6 -7 -6 -9 -12 -3 -12 5 0 2
-5 -6 -11 -12 -8 -10 -9 7 -4 12 3 24 2 27 -3 3 -6 -3 -12 -13 -15 -14 -3 -17
-11 -14 -30 4 -18 10 -23 24 -20 14 4 17 1 14 -16 -3 -18 0 -20 23 -15 15 4
24 4 21 0 -4 -4 -20 -8 -37 -10 -23 -3 -29 -1 -25 10 3 8 -1 14 -8 14 -7 0 -9
-3 -6 -7 4 -3 1 -13 -6 -21 -7 -9 -7 -13 -1 -9 6 3 20 0 30 -9 18 -14 18 -15
-5 -8 -18 4 -22 3 -16 -7 6 -9 3 -10 -11 -5 -10 4 -15 4 -11 0 4 -4 2 -13 -4
-21 -9 -9 -8 -13 0 -13 6 0 11 5 11 10 0 6 7 10 16 10 9 0 12 -5 8 -12 -5 -8
-2 -9 10 -5 11 5 15 3 10 -5 -5 -8 -1 -9 12 -4 10 4 15 3 10 -1 -4 -4 -19 -8
-33 -8 -15 0 -28 -7 -31 -15 -4 -12 -3 -13 10 -3 12 11 18 9 33 -7 18 -20 18
-21 -1 -36 -16 -14 -17 -15 -1 -10 9 3 17 1 17 -4 0 -6 -7 -10 -15 -10 -8 0
-15 -5 -15 -11 0 -7 23 -10 64 -7 35 1 62 0 60 -3 -2 -3 25 -9 59 -12 109 -11
426 -83 445 -101 6 -6 -121 -251 -179 -344 -39 -64 -55 -82 -67 -77 -38 15
-193 48 -272 59 l-85 12 -5 115 c-5 105 -8 119 -32 157 -38 56 -153 188 -208
238 -148 134 -393 279 -604 359 -52 19 -57 24 -40 33 10 6 16 13 14 16 -9 8
-319 123 -475 176 -77 26 -186 64 -242 85 l-101 37 -6 82 c-4 44 -9 102 -12
128 l-6 47 -40 -25 c-22 -14 -41 -24 -43 -22 -2 2 -9 66 -16 143 l-12 140 46
121 c25 67 51 147 58 178 l13 56 28 -108 c34 -128 80 -227 145 -305 71 -84
121 -122 313 -232 94 -55 174 -106 177 -113 3 -8 -2 -29 -11 -48 -43 -90 -3
-154 125 -204 95 -36 194 -49 239 -30 18 8 45 34 66 66 20 30 40 54 44 54 11
0 117 210 141 279 26 73 24 117 -7 180 -41 82 -145 152 -283 190 -81 22 -91
27 -91 44 0 7 -16 45 -35 85 -46 96 -143 194 -245 246 l-75 39 3 52 c2 31 -5
88 -17 137 -15 60 -20 113 -20 193 1 123 -16 217 -55 293 -79 155 -212 247
-395 272 -72 10 -91 17 -148 56 -87 60 -163 97 -249 123 -68 21 -70 23 -66 51
2 17 15 36 29 45 60 40 107 231 68 275 -10 11 -29 20 -43 20 -19 0 -23 3 -16
18 4 9 10 63 12 120 5 125 -18 211 -75 287 -99 129 -298 195 -458 152 -187
-50 -303 -168 -341 -347 -13 -64 -10 -118 11 -201 5 -21 2 -27 -14 -32 -33 -8
-45 -53 -32 -116 11 -57 50 -142 81 -176 38 -43 34 -58 -27 -90 -113 -59 -296
-188 -381 -269 -84 -79 -90 -83 -145 -90 -74 -8 -184 -63 -250 -124 -111 -104
-168 -241 -172 -413 l-3 -107 -46 -58 c-71 -91 -112 -177 -135 -289 -12 -55
-23 -109 -26 -121 -2 -11 -36 -42 -74 -68 -128 -87 -233 -219 -285 -358 -26
-69 -56 -209 -56 -262 0 -31 -2 -33 -52 -42 l-53 -9 -103 -135 c-148 -194
-161 -225 -137 -308 15 -50 54 -94 94 -107 10 -3 24 -19 31 -36 7 -16 23 -38
36 -48 13 -11 24 -22 24 -25 0 -9 -234 -6 -249 3 -7 5 -11 14 -9 22 2 8 -4 13
-13 13 -13 -1 -15 6 -12 32 3 21 0 34 -7 34 -15 0 -7 49 11 61 15 9 -26 8
-231 -11 -63 -5 -172 -10 -242 -10 l-127 0 -15 51 c-9 28 -18 66 -22 85 l-6
34 71 0 c178 0 365 36 488 94 58 28 223 130 223 139 0 1 -125 1 -278 -1 l-277
-3 -23 108 c-30 148 -40 212 -34 218 3 3 23 5 44 5 49 0 462 47 549 63 56 10
64 14 53 25 -8 7 -14 8 -14 2 0 -5 -5 -10 -11 -10 -5 0 -7 5 -4 11 4 6 -4 22
-16 36 -13 15 -18 23 -11 19 6 -4 12 -2 12 4 0 6 3 9 8 7 4 -3 16 -1 27 4 18
7 18 8 2 8 -10 1 -15 6 -12 11 3 6 -3 10 -14 10 -13 0 -21 -7 -22 -17 0 -11
-3 -13 -6 -6 -2 7 12 28 31 47 25 23 34 39 30 51 -5 12 -9 13 -14 4 -5 -7 -6
-18 -3 -25 6 -17 -16 -29 -30 -15 -9 9 -8 11 5 6 13 -5 17 -2 15 14 -1 12 -7
20 -13 18 -7 -1 -13 3 -13 8 0 6 7 9 15 7 8 -2 14 2 14 8 0 6 4 8 10 5 5 -3 7
0 4 9 -3 8 0 16 8 19 7 2 4 2 -7 0 -140 -27 -373 -45 -650 -50 l-310 -5 2 48
c5 85 23 236 39 326 l16 87 66 6 c253 22 507 73 712 143 l85 29 -410 7 c-225
3 -411 8 -413 11 -8 8 31 163 78 305 109 334 336 743 586 1055 115 144 401
429 534 532 512 396 1067 626 1710 708 139 18 592 12 743 -9z m1685 -184 c27
-25 32 -37 32 -75 0 -60 -29 -97 -77 -97 l-35 0 7 -51 c7 -48 6 -50 -11 -40
-45 26 -53 38 -56 87 -2 41 -7 50 -24 52 -13 2 -25 -6 -34 -22 -13 -25 -14
-25 -42 -9 -15 10 -28 20 -28 23 0 4 20 32 43 62 24 31 59 79 76 107 l33 51
42 -29 c23 -16 56 -43 74 -59z m-4099 2 l-4 -76 65 -24 c36 -14 71 -27 78 -29
9 -3 4 -13 -16 -30 -29 -24 -31 -24 -72 -10 -23 8 -46 15 -50 15 -4 0 -11 -28
-16 -62 -8 -56 -12 -64 -42 -81 l-33 -19 7 53 c3 30 10 71 14 91 l8 37 -62 21
c-88 29 -94 34 -62 55 14 10 34 15 44 12 9 -3 31 -10 49 -15 l31 -10 -5 51
c-4 50 -3 53 29 74 18 12 35 22 36 22 2 1 2 -33 1 -75z m4350 -192 l84 -78
-27 -17 c-26 -17 -28 -17 -53 3 -15 11 -30 17 -33 13 -50 -55 -100 -115 -108
-129 -8 -15 -11 -15 -36 1 -14 10 -26 22 -26 27 0 6 30 43 66 83 l66 74 -34
30 c-32 29 -33 29 -14 50 11 12 22 21 25 21 3 0 44 -35 90 -78z m-4585 -74
c42 -48 76 -91 76 -96 0 -5 -9 -17 -20 -27 -19 -17 -21 -17 -41 1 -12 10 -53
54 -91 96 l-70 78 29 24 c15 14 31 22 34 18 3 -4 40 -46 83 -94z m-249 -68 c5
-8 142 -116 179 -142 7 -5 2 -17 -14 -33 l-25 -25 -52 45 c-28 25 -54 45 -56
45 -3 0 -1 -15 4 -33 18 -68 26 -127 18 -133 -5 -3 -31 1 -57 9 -84 27 -93 27
-82 7 5 -10 26 -31 47 -48 32 -26 36 -34 27 -49 -6 -10 -18 -18 -26 -18 -18 0
-188 154 -188 170 0 6 11 22 24 34 24 23 25 23 79 7 30 -9 64 -16 75 -16 20 0
20 0 1 55 -25 71 -24 99 4 118 26 19 34 20 42 7z m5017 -39 c13 -5 36 -21 51
-37 23 -23 27 -35 25 -68 -2 -33 -7 -41 -23 -41 -15 0 -21 8 -23 31 -3 35 -34
70 -51 59 -17 -10 -13 -37 9 -70 11 -16 20 -47 20 -67 0 -70 -70 -96 -137 -52
-35 22 -64 75 -61 109 3 26 7 30 33 30 26 0 30 -4 33 -32 3 -33 46 -78 63 -67
15 9 10 48 -11 79 -28 42 -26 99 2 119 26 18 38 19 70 7z m-2547 -120 c-6 -5
-37 -20 -70 -34 l-60 -25 0 -291 c0 -190 -3 -290 -10 -287 -26 12 -226 76
-235 76 -19 0 -10 -38 15 -68 21 -26 173 -102 203 -102 5 0 12 -62 15 -137 3
-87 11 -154 21 -180 8 -24 12 -43 8 -43 -19 0 -113 63 -137 92 -42 49 -113
206 -129 284 -14 68 -30 181 -46 319 -9 78 2 171 28 225 37 78 137 150 233
169 61 12 175 13 164 2z m-3003 -624 c2 -4 21 -14 42 -21 l40 -14 -43 -22
c-43 -21 -43 -22 -38 -66 2 -24 2 -44 -2 -44 -3 0 -18 14 -33 32 l-26 32 -50
-16 -50 -16 16 43 c15 42 15 43 -13 79 l-27 36 50 0 c46 0 53 3 73 32 l23 32
18 -40 c9 -21 19 -43 20 -47z m6073 42 c15 -28 18 -29 65 -23 28 4 50 3 50 -2
-1 -5 -14 -24 -30 -43 -27 -32 -28 -36 -14 -62 22 -43 17 -50 -20 -32 -34 16
-35 16 -73 -16 l-38 -32 -3 44 c-3 41 -6 46 -42 62 -22 10 -40 21 -40 25 0 4
19 13 43 19 40 12 44 16 55 57 13 49 24 49 47 3z m-3454 -371 c12 -24 38 -68
59 -98 61 -91 140 -226 140 -240 0 -18 -30 10 -91 83 -27 32 -49 54 -49 48 0
-5 9 -38 20 -73 25 -80 25 -97 0 -65 -29 36 -69 119 -86 178 -15 49 -16 50
-30 31 -17 -25 -195 -169 -265 -213 -27 -18 -49 -35 -49 -39 0 -4 31 -10 70
-14 97 -9 348 -62 425 -90 172 -62 232 -186 194 -402 -36 -205 -223 -299 -454
-230 -49 15 -135 64 -135 77 0 4 34 10 75 14 136 12 139 18 26 42 -125 27
-277 98 -275 129 1 10 22 64 48 118 25 55 44 102 42 104 -2 2 -28 -20 -58 -48
-99 -95 -301 -216 -396 -237 -22 -5 -35 -22 -72 -94 -24 -48 -46 -86 -49 -84
-9 10 -30 204 -30 285 -1 147 33 237 121 327 60 61 128 93 212 100 60 5 62 7
119 69 66 72 179 163 329 263 57 38 110 77 118 85 7 9 14 16 16 16 2 0 13 -19
25 -42z m915 -128 c25 -18 43 -34 40 -37 -5 -6 -156 84 -156 93 0 9 71 -26
116 -56z m-3881 -33 c17 -34 28 -44 70 -57 l50 -17 -45 -28 c-25 -15 -46 -28
-47 -29 -1 -1 1 -25 6 -54 4 -29 6 -52 4 -52 -2 0 -22 13 -44 30 -40 29 -42
29 -78 14 -72 -32 -71 -32 -56 26 l14 52 -35 37 c-19 21 -34 41 -34 45 0 3 24
6 54 6 52 0 56 2 83 39 15 22 30 37 33 34 3 -2 14 -23 25 -46z m6757 13 c26
-38 31 -40 78 -40 27 0 50 -3 50 -6 0 -3 -14 -23 -31 -45 l-30 -38 15 -51 c8
-27 13 -50 11 -50 -3 0 -25 10 -49 22 l-46 22 -46 -34 -47 -33 5 56 5 57 -46
27 -45 26 56 20 c53 19 57 23 68 64 7 23 15 43 19 43 3 -1 18 -19 33 -40z
m-2545 -101 c64 -31 129 -94 159 -156 23 -46 29 -74 32 -147 3 -72 2 -89 -8
-79 -7 6 -18 9 -26 6 -7 -3 -75 25 -151 61 -144 68 -241 99 -295 94 l-32 -3
54 -35 c74 -48 88 -75 72 -137 -18 -69 -85 -201 -127 -250 -45 -53 -143 -103
-201 -103 -50 0 -123 23 -169 53 -31 20 -33 25 -39 102 -7 79 -7 80 22 105 15
14 93 81 172 150 330 286 341 299 270 300 -21 1 -17 5 23 26 89 46 163 50 244
13z m116 -560 c44 -12 102 -59 123 -102 14 -26 22 -162 11 -174 -2 -2 -35 32
-74 74 -53 59 -75 93 -91 141 -12 34 -22 64 -22 67 0 7 10 6 53 -6z m-2355
-327 c12 -53 22 -108 22 -121 0 -21 4 -19 53 25 54 49 147 98 206 110 33 7 34
7 27 -22 -14 -54 -75 -195 -107 -245 -44 -69 -136 -149 -222 -193 l-72 -38
-13 54 c-19 72 -21 311 -3 363 18 54 72 165 80 165 4 0 17 -44 29 -98z m2676
-82 c69 -47 134 -126 151 -183 8 -28 15 -55 15 -61 0 -6 -21 -42 -46 -79 l-45
-68 -47 37 c-108 86 -210 176 -262 228 l-54 56 81 -34 c96 -41 146 -71 198
-120 21 -20 39 -36 42 -36 7 0 -49 105 -73 137 -18 24 -24 44 -24 86 0 48 5
67 17 67 3 0 24 -13 47 -30z m1026 -85 c4 2 16 -5 26 -18 l19 -22 -24 20 c-21
18 -24 18 -18 3 4 -11 2 -18 -6 -18 -7 0 -13 12 -13 28 -1 15 1 21 3 14 3 -6
8 -10 13 -7z m63 -57 c5 1 6 -2 2 -8 -4 -7 -12 -7 -25 0 -13 7 -20 6 -22 -2
-5 -13 -38 -4 -38 11 0 15 33 19 55 7 11 -6 24 -9 28 -8z m-3164 -228 c85
-142 111 -207 111 -275 l0 -57 -30 6 -30 6 0 -141 0 -141 -22 6 c-79 22 -78
23 -78 -28 0 -25 -4 -46 -10 -46 -5 0 -96 -85 -202 -188 -106 -103 -260 -253
-343 -332 -82 -79 -151 -148 -153 -152 -2 -4 6 -8 17 -8 12 0 21 -3 21 -6 0
-3 -80 -87 -177 -186 l-178 -180 -238 4 -237 3 -1 -165 c0 -91 -3 -158 -6
-150 -4 8 -13 21 -22 27 -13 10 -14 14 -3 21 10 7 7 11 -13 16 -22 6 -26 11
-22 32 2 13 0 27 -5 30 -4 3 -6 9 -3 13 2 5 6 45 9 91 2 50 8 85 16 90 9 5 9
9 1 14 -13 8 -15 26 -3 26 5 0 13 -10 19 -22 10 -22 10 -22 15 9 2 18 1 30 -3
27 -5 -2 -13 4 -19 15 -9 17 -8 19 5 15 8 -4 15 -1 15 4 0 6 8 13 18 16 9 3
-4 3 -29 0 -242 -26 -470 -32 -487 -11 -13 16 -132 242 -132 250 0 4 66 7 148
7 192 0 309 14 545 67 67 15 68 15 51 34 -10 11 -24 17 -31 14 -8 -2 -11 0 -8
5 9 15 32 12 39 -6 3 -8 10 -12 16 -9 5 3 10 1 10 -4 0 -6 5 -11 10 -11 6 0
10 7 10 16 0 8 -4 13 -8 10 -4 -2 -14 0 -22 5 -12 7 -13 11 -2 18 11 7 10 9
-3 14 -9 4 -13 3 -10 -3 3 -6 2 -10 -3 -10 -16 0 -22 28 -8 39 15 13 49 4 40
-10 -3 -5 -1 -9 5 -9 6 0 7 -7 4 -17 -4 -11 -3 -14 6 -9 6 4 11 4 10 -1 -4
-26 6 -32 64 -38 57 -6 66 -10 82 -37 10 -18 36 -39 63 -50 65 -29 102 -15
184 70 80 83 128 156 128 196 0 16 -11 44 -25 62 l-24 32 58 88 c37 56 99 128
167 194 204 198 282 310 328 476 24 82 37 108 81 163 73 92 115 156 148 225
l28 60 31 -60 c17 -32 56 -102 87 -154z m781 162 c0 -39 -37 -98 -70 -112 -17
-7 -60 -13 -95 -14 -36 0 -65 -4 -65 -7 0 -3 43 -16 96 -29 74 -17 98 -27 110
-46 37 -56 -21 -90 -142 -82 l-73 5 17 -22 c28 -37 87 -74 137 -85 87 -19 130
-53 146 -113 14 -51 9 -54 -94 -55 -99 -1 -145 17 -207 84 -42 46 -100 159
-100 197 0 12 -18 40 -41 63 l-41 42 63 -18 c35 -9 84 -20 109 -23 l45 -7 -68
36 c-68 37 -197 139 -205 161 -2 9 8 8 35 -3 21 -9 76 -19 124 -22 101 -5 166
10 249 61 57 34 70 32 70 -11z m240 -11 l75 -29 -39 -16 c-42 -18 -157 -49
-161 -44 -1 2 -5 33 -8 70 l-6 66 32 -9 c18 -5 66 -22 107 -38z m2116 24 c-3
-23 -12 -27 -26 -10 -9 11 -9 15 -1 15 7 0 9 4 6 10 -3 5 0 7 8 4 8 -3 14 -12
13 -19z m19 -62 c-21 -15 -39 -17 -31 -4 4 5 0 12 -6 15 -7 3 0 2 16 -1 22 -5
27 -3 21 7 -6 9 -4 11 5 5 10 -6 9 -11 -5 -22z m-2961 -92 c29 -27 78 -67 109
-89 l55 -41 7 -68 c4 -37 15 -101 24 -140 l18 -73 -26 7 c-14 3 -48 13 -76 22
l-50 16 -6 80 c-8 93 -25 150 -80 258 -21 42 -37 77 -34 77 3 0 29 -22 59 -49z
m-1032 -43 c6 -189 -5 -250 -63 -355 -16 -29 -27 -53 -25 -53 3 0 52 44 109
98 57 53 118 105 135 115 l30 17 -10 -37 c-25 -92 -98 -221 -175 -312 l-30
-35 -34 27 c-56 42 -146 79 -210 84 -69 7 -69 6 -40 128 25 101 50 160 100
233 56 81 79 105 135 141 73 46 76 44 78 -51z m3310 43 c83 -32 155 -87 137
-105 -2 -3 -50 8 -104 24 -55 16 -110 30 -122 30 -20 0 -72 -62 -136 -163 -15
-23 -21 -26 -33 -16 -23 19 -17 42 39 125 92 139 88 135 127 130 19 -2 60 -14
92 -25z m660 7 c-18 -18 -15 -41 4 -34 8 3 12 2 9 -4 -3 -5 -16 -8 -28 -6 -12
3 -26 5 -32 6 -5 0 0 9 12 19 12 10 19 21 16 25 -4 3 2 6 12 6 15 0 16 -3 7
-12z m81 -3 c-3 -9 -8 -14 -10 -11 -3 3 -2 9 2 15 9 16 15 13 8 -4z m-2232
-31 c30 -9 71 -23 92 -31 36 -15 37 -16 21 -34 -14 -15 -159 -69 -186 -69 -3
0 -9 23 -12 52 -4 28 -11 59 -16 69 -17 31 21 36 101 13z m2183 -19 c-4 -8
-10 -15 -15 -15 -5 0 -9 -7 -9 -15 0 -8 -8 -15 -17 -15 -15 0 -16 2 -3 10 8 5
11 12 7 16 -4 5 3 14 15 21 29 16 28 16 22 -2z m-632 -151 c96 -26 113 -39 84
-63 -10 -9 -40 -5 -125 16 -108 27 -124 36 -99 61 17 17 28 16 140 -14z
m-1526 -41 c27 -9 59 -23 72 -31 22 -14 22 -16 6 -41 -22 -35 -51 -58 -99 -81
-65 -32 -71 -28 -79 43 -3 34 -9 77 -12 95 -6 31 -5 32 28 32 19 0 57 -7 84
-17z m1434 -94 c103 -35 138 -53 121 -64 -12 -7 -230 34 -244 46 -9 7 9 49 21
49 4 0 50 -14 102 -31z m-57 -138 c94 -32 114 -45 82 -58 -15 -5 -225 45 -225
54 0 15 24 44 33 40 7 -2 56 -19 110 -36z m-1988 -40 c105 -27 186 -50 180
-51 -21 -3 32 -19 70 -20 22 -1 49 -5 60 -10 16 -7 14 -9 -15 -9 -50 -2 -77
-21 -29 -21 20 0 65 -3 100 -7 l64 -7 -75 -18 c-113 -28 -270 -34 -350 -14
-36 10 -94 24 -130 32 -35 8 -68 18 -71 22 -12 13 -17 152 -5 152 6 0 97 -23
201 -49z m-1432 -134 c71 -46 87 -63 87 -98 0 -16 -3 -29 -6 -29 -3 0 -32 21
-65 46 -43 33 -59 52 -59 69 0 13 -8 29 -17 34 -11 6 -13 11 -5 11 7 0 36 -15
65 -33z m-231 -14 c18 -10 35 -20 38 -23 3 -3 17 -11 31 -19 15 -7 52 -39 84
-71 l57 -57 -17 -32 c-18 -36 -8 -39 -96 31 -19 14 -61 42 -94 60 l-60 34 -93
-106 c-52 -58 -100 -106 -107 -108 -8 -2 -18 5 -24 16 -9 16 2 34 72 117 45
53 96 114 112 136 34 43 49 47 97 22z m1624 -113 c135 -33 287 -65 339 -72 51
-7 92 -15 90 -18 -5 -8 -156 -36 -420 -80 -99 -16 -254 -43 -345 -60 -91 -16
-183 -33 -205 -36 l-40 -7 132 134 c72 74 143 149 158 167 15 17 31 32 37 32
5 0 120 -27 254 -60z m2829 -10 c3 -5 -3 -10 -15 -10 -12 0 -18 5 -15 10 3 6
10 10 15 10 5 0 12 -4 15 -10z m-1405 -66 c-130 -69 -200 -102 -285 -136 -67
-26 -47 -8 40 36 81 42 78 44 -23 15 -40 -11 -76 -19 -78 -16 -11 11 249 114
371 147 111 30 108 24 -25 -46z m1400 37 c0 -5 -9 -7 -20 -4 -11 3 -20 7 -20
9 0 2 9 4 20 4 11 0 20 -4 20 -9z m-15 -21 c3 -5 1 -10 -4 -10 -6 0 -11 5 -11
10 0 6 2 10 4 10 3 0 8 -4 11 -10z m-1003 -49 c164 -56 400 -189 583 -326 181
-136 275 -248 275 -328 0 -35 -32 -87 -53 -87 -7 0 -59 33 -117 73 -96 66
-357 231 -506 320 -86 52 -383 192 -390 185 -1 -2 65 -43 147 -92 82 -49 148
-90 146 -92 -2 -2 -55 18 -118 45 -64 27 -142 56 -175 65 -32 9 -65 19 -72 21
-20 7 37 74 136 161 46 41 85 74 87 74 1 0 27 -9 57 -19z m-3431 -1 c10 -6 19
-16 19 -23 0 -13 -144 -157 -157 -157 -5 0 -14 5 -21 12 -11 11 23 61 102 146
34 37 31 35 57 22z m4469 -40 c0 -5 -12 -10 -27 -9 -25 0 -26 1 -8 9 27 12 35
12 35 0z m-4190 -25 c0 -17 -4 -23 -15 -19 -11 5 -12 10 -2 25 15 25 17 24 17
-6z m4216 3 c5 -7 3 -8 -6 -3 -10 6 -12 3 -8 -12 3 -12 0 -20 -7 -20 -7 0 -11
6 -8 14 3 8 -3 13 -18 14 l-24 1 25 8 c36 11 38 11 46 -2z m-4366 -80 c0 -16
-92 -118 -106 -118 -8 0 -14 -6 -15 -12 0 -10 -2 -10 -6 -1 -3 10 -10 10 -26
1 l-22 -11 20 24 c11 13 36 42 55 65 19 22 43 51 53 63 15 18 21 20 33 11 8
-7 14 -17 14 -22z m4356 -3 c-3 -20 -16 -31 -16 -13 0 13 8 28 16 28 1 0 1 -7
0 -15z m-4236 -80 c9 -11 8 -20 -9 -44 -27 -37 -71 -72 -81 -66 -5 3 -12 1
-15 -5 -4 -6 -3 -10 2 -9 17 3 24 -1 18 -11 -5 -8 -11 -7 -21 1 -11 9 -18 8
-31 -2 -22 -18 17 39 71 104 43 52 48 54 66 32z m-753 -10 c0 -8 -4 -12 -9 -9
-5 3 -6 10 -3 15 9 13 12 11 12 -6z m3704 -75 c34 -47 86 -113 116 -146 l53
-62 -77 15 c-43 8 -121 26 -173 40 -52 14 -105 28 -117 30 -13 3 -23 10 -23
15 0 15 140 200 149 196 5 -2 37 -41 72 -88z m1287 55 c-3 -3 -9 2 -12 12 -6
14 -5 15 5 6 7 -7 10 -15 7 -18z m-4954 -40 c-7 -16 -24 -21 -24 -6 0 8 7 13
27 20 1 1 0 -6 -3 -14z m1944 -2 c100 -3 180 -8 178 -10 -2 -2 -83 -17 -180
-33 -262 -44 -303 -56 -358 -108 l-27 -25 -113 22 c-62 12 -133 23 -158 26
-25 2 -47 4 -49 4 -8 1 63 72 94 94 16 12 52 25 80 28 72 9 323 10 533 2z
m-2813 -203 c12 -23 22 -30 45 -30 35 0 38 -10 9 -36 -16 -14 -20 -26 -15 -52
3 -18 2 -32 -2 -30 -4 2 -19 10 -34 17 -24 12 -30 12 -46 -2 -27 -25 -34 -21
-27 14 5 24 2 36 -15 54 l-22 23 30 7 c21 4 34 16 42 36 7 16 14 29 16 29 2 0
10 -13 19 -30z m6792 0 c9 -24 17 -30 42 -30 36 0 38 -6 11 -35 -16 -17 -18
-27 -11 -53 11 -38 8 -39 -29 -12 -18 13 -31 16 -35 10 -3 -5 -15 -15 -27 -21
-19 -10 -20 -9 -16 22 4 27 0 37 -18 52 -33 26 -30 37 10 37 30 0 35 4 41 30
4 17 10 30 14 30 3 0 12 -13 18 -30z m-4642 -59 c44 -11 99 -27 122 -35 61
-22 173 -77 173 -86 0 -9 -110 -162 -125 -172 -5 -4 -138 -8 -294 -8 l-283 0
32 38 c126 146 267 290 280 287 8 -2 51 -13 95 -24z m1344 -32 c92 -26 229
-84 430 -182 l152 -74 100 38 c55 22 108 39 119 39 18 0 229 -76 239 -86 2 -2
-310 -4 -693 -4 -410 0 -696 4 -694 9 6 16 253 280 262 280 6 1 44 -9 85 -20z
m-2489 -199 c0 -5 -2 -10 -4 -10 -3 0 -8 5 -11 10 -3 6 -1 10 4 10 6 0 11 -4
11 -10z m5793 -149 c42 -8 77 -17 76 -20 0 -3 -27 -28 -61 -55 l-60 -49 7 -70
c3 -38 9 -76 12 -84 3 -8 -23 4 -58 26 -35 23 -70 41 -77 41 -7 0 -45 -16 -84
-36 -55 -28 -69 -32 -64 -18 4 9 14 47 23 83 l16 65 -61 57 c-34 31 -62 59
-62 63 0 3 17 6 39 6 21 0 59 3 85 6 47 7 48 8 82 77 l36 70 36 -74 37 -74 78
-14z m-6630 84 l32 -60 88 -9 89 -9 -62 -62 -62 -62 21 -74 c11 -40 19 -74 17
-76 -2 -2 -36 12 -75 31 l-73 35 -66 -44 c-37 -24 -68 -42 -69 -42 -1 1 3 22
7 47 20 101 16 114 -51 167 l-62 48 49 13 c113 30 116 32 142 100 13 35 28 62
34 60 5 -2 24 -30 41 -63z m5644 -127 c-2 -29 -3 -8 -3 47 0 55 1 79 3 53 2
-26 2 -71 0 -100z m-1857 -263 l0 -225 -145 0 -145 0 0 -800 0 -800 -267 2
-268 3 4 798 3 797 -357 0 -358 0 3 -712 c2 -392 3 -752 2 -800 l-2 -88 -265
0 -265 0 0 800 0 800 -332 2 -333 3 1 100 c1 55 2 155 3 223 l1 122 1360 0
1360 0 0 -225z m1678 3 l-3 -223 -492 -3 -493 -2 0 -135 0 -135 330 0 330 0 0
-225 0 -225 -330 0 -330 0 0 -440 0 -440 -265 0 -265 0 0 1025 0 1025 760 0
760 0 -2 -222z m184 119 c2 -62 4 -67 25 -68 36 -2 41 -3 50 -13 5 -5 3 -6 -4
-2 -9 5 -13 0 -13 -16 0 -21 -54 -108 -66 -108 -2 0 -4 64 -4 142 0 147 6 183
12 65z m-4765 -119 c-2 -13 -4 -5 -4 17 -1 22 1 32 4 23 2 -10 2 -28 0 -40z
m0 -130 c-3 -8 -6 -5 -6 6 -1 11 2 17 5 13 3 -3 4 -12 1 -19z m639 -1961 c3
-3 3 -15 -1 -26 -5 -18 -12 -20 -46 -15 -31 5 -39 3 -39 -8 0 -9 13 -18 32
-22 96 -19 85 -126 -13 -126 -43 0 -83 28 -70 49 7 11 15 11 45 1 19 -6 40 -9
45 -5 18 10 1 33 -29 39 -34 6 -70 39 -70 61 0 9 12 28 26 42 22 22 32 25 70
20 25 -2 47 -7 50 -10z m210 -82 c24 -52 44 -97 44 -100 0 -12 -51 -3 -56 10
-4 10 -20 15 -44 15 -24 0 -40 -5 -44 -15 -6 -17 -56 -21 -56 -5 0 6 17 51 37
100 49 121 60 120 119 -5z m144 14 l0 -80 53 2 c49 3 52 2 52 -21 0 -24 -3
-25 -77 -28 l-78 -3 0 99 c0 54 3 102 7 105 3 4 15 7 25 7 16 0 18 -9 18 -81z
m210 -31 c0 -97 0 -99 -22 -96 -22 3 -23 8 -26 92 -3 105 0 116 27 109 19 -5
21 -13 21 -105z m147 60 l53 -52 0 52 c0 49 2 52 25 52 l25 0 0 -105 c0 -127
-10 -133 -82 -53 l-47 53 -1 -52 c0 -50 -2 -53 -25 -53 l-25 0 0 105 c0 76 3
105 12 105 7 0 36 -23 65 -52z m325 -48 c26 -52 48 -98 48 -102 0 -17 -50 -7
-60 12 -8 15 -21 20 -50 20 -29 0 -42 -5 -50 -20 -10 -20 -50 -28 -50 -11 0
13 24 79 54 144 35 80 50 75 108 -43z m212 87 c30 -22 11 -46 -33 -40 -53 7
-62 -13 -12 -27 49 -13 71 -34 71 -66 0 -55 -68 -81 -130 -49 -32 17 -35 22
-20 45 7 12 12 12 22 2 6 -6 27 -12 46 -12 45 0 38 21 -13 38 -71 24 -84 54
-40 97 27 28 80 34 109 12z m416 -5 c22 -17 22 -18 2 -36 -16 -14 -24 -15 -41
-6 -41 21 -84 -27 -62 -68 14 -26 38 -34 61 -22 27 15 38 12 50 -10 9 -16 6
-22 -19 -35 -43 -22 -75 -19 -110 11 -54 45 -49 127 11 168 30 21 81 20 108
-2z m209 -76 c22 -52 41 -99 41 -105 0 -20 -47 -12 -53 9 -4 16 -14 20 -46 20
-30 0 -44 -5 -53 -20 -11 -17 -58 -30 -58 -16 0 5 20 51 64 149 38 84 54 79
105 -37z m149 12 l3 -78 49 0 c47 0 50 -2 50 -25 0 -24 -2 -25 -74 -25 -58 0
-75 3 -80 16 -8 20 -8 89 0 148 6 40 10 47 28 44 19 -3 21 -10 24 -80z m196
30 c14 -124 7 -158 -35 -158 -5 0 -9 47 -9 105 0 96 2 105 19 105 15 0 19 -10
25 -52z m216 27 c0 -23 -3 -25 -48 -25 -53 0 -63 -5 -55 -26 3 -9 20 -14 44
-14 32 0 39 -3 39 -20 0 -17 -7 -20 -39 -20 -39 0 -40 -1 -43 -37 -3 -33 -6
-38 -28 -38 -25 0 -25 1 -28 89 -2 49 -1 95 2 103 4 9 27 13 81 13 73 0 75 -1
75 -25z m206 -9 c37 -37 44 -74 22 -121 -13 -30 -55 -55 -91 -55 -35 0 -89 41
-98 73 -18 67 33 137 98 137 26 0 43 -8 69 -34z m227 14 c36 -28 41 -53 21
-95 -13 -29 -14 -41 -6 -61 11 -22 10 -24 -18 -24 -20 0 -31 6 -35 20 -4 13
-15 20 -31 20 -17 0 -24 -5 -24 -20 0 -11 -4 -20 -9 -20 -5 0 -16 -3 -25 -6
-14 -5 -16 7 -16 100 l0 106 59 0 c43 0 65 -5 84 -20z m165 -32 l47 -52 5 50
c5 44 7 49 30 49 25 0 25 0 25 -100 0 -126 -13 -133 -85 -53 l-49 53 -1 -53
c0 -50 -2 -53 -22 -50 -22 3 -23 8 -26 106 -3 123 6 129 76 50z m212 -54 c0
-104 0 -105 -22 -102 -22 3 -23 8 -26 92 -3 103 0 116 28 116 19 0 20 -6 20
-106z m194 69 c10 -21 31 -68 47 -105 l28 -68 -24 0 c-14 0 -30 9 -37 20 -10
15 -24 20 -55 20 -33 0 -43 -4 -48 -20 -6 -20 -55 -30 -55 -11 0 5 20 53 44
105 51 110 70 121 100 59z m-2073 -123 c23 -13 26 -62 3 -84 -22 -23 -26 -20
-19 14 5 23 3 30 -9 30 -16 0 -22 30 -9 43 8 9 11 9 34 -3z"/>
<path d="M5130 9116 c0 -13 -3 -31 -6 -40 -5 -13 2 -16 34 -16 56 0 72 8 72
36 0 27 -26 44 -69 44 -26 0 -31 -4 -31 -24z"/>
<path d="M4811 9050 c-10 -29 -9 -30 20 -30 33 0 33 0 17 35 -15 33 -24 32
-37 -5z"/>
<path d="M5927 8923 c-18 -20 -24 -33 -15 -33 7 0 23 -3 36 -6 19 -6 22 -3 22
22 0 48 -13 53 -43 17z"/>
<path d="M3593 8820 c-28 -11 -28 -11 -1 -88 22 -62 24 -63 53 -58 44 9 78 52
71 90 -11 56 -64 80 -123 56z"/>
<path d="M6716 8625 c-20 -15 -15 -29 13 -45 16 -8 19 -5 23 25 4 38 -5 43
-36 20z"/>
<path d="M5373 8398 c-4 -7 -8 -17 -9 -23 -1 -5 -5 -18 -10 -29 -7 -18 -6 -18
14 0 15 12 18 21 11 30 -6 8 -4 14 7 18 9 4 19 4 22 1 3 -3 0 -5 -6 -5 -7 0
-12 -5 -12 -11 0 -5 5 -7 11 -3 8 5 8 1 0 -14 -10 -19 -9 -21 16 -19 24 2 28
-1 25 -22 -3 -22 -1 -23 30 -18 18 3 100 11 181 18 l148 13 -65 18 c-82 22
-280 58 -322 58 -18 0 -36 -6 -41 -12z"/>
<path d="M5300 8361 c0 -5 7 -12 16 -15 14 -5 15 -4 4 9 -14 17 -20 19 -20 6z"/>
<path d="M4160 8291 c-402 -132 -710 -297 -1020 -546 -145 -116 -143 -114
-129 -154 12 -34 3 -33 114 -16 l40 6 -58 -58 c-34 -35 -54 -63 -49 -68 13
-15 44 -97 38 -102 -2 -3 -32 8 -66 23 -54 24 -64 26 -74 13 -6 -8 -32 -32
-58 -53 -42 -33 -48 -36 -48 -18 0 11 7 39 15 63 27 75 -3 93 -58 36 -65 -67
-192 -210 -200 -223 -5 -8 -3 -30 3 -50 13 -39 9 -39 120 -18 l35 7 -55 -57
-54 -56 22 -61 c12 -34 21 -63 19 -65 -2 -2 -30 9 -63 25 l-61 29 -64 -54
c-35 -29 -67 -54 -70 -54 -4 0 2 25 12 57 11 31 19 60 19 66 0 20 -124 -181
-180 -294 -33 -65 -60 -123 -60 -128 0 -4 14 -15 32 -24 l32 -16 -29 -6 c-17
-3 -36 -9 -43 -13 -13 -7 -82 -164 -82 -185 0 -17 266 11 560 59 121 20 547
108 676 140 18 5 21 13 21 59 0 30 -4 52 -9 49 -4 -3 -8 -1 -8 5 0 5 5 13 10
16 7 4 7 12 0 24 -10 19 -4 31 14 31 6 0 5 -4 -2 -9 -11 -6 -10 -12 4 -26 12
-11 19 -14 22 -6 2 6 9 8 14 5 7 -4 8 -2 4 5 -4 6 -12 9 -17 6 -5 -4 -9 -1 -9
4 0 6 5 11 11 11 5 0 7 5 3 12 -5 8 -2 9 12 4 10 -4 15 -4 12 0 -4 4 -3 15 3
25 6 13 6 19 -1 19 -5 0 -10 -4 -10 -10 0 -5 -10 -15 -22 -21 l-23 -12 23 25
c12 13 19 28 15 32 -4 4 1 4 11 0 14 -5 17 -4 11 5 -5 10 -1 12 16 7 13 -3 18
-3 12 0 -23 10 -15 44 10 44 22 0 33 12 68 75 10 17 22 29 27 28 6 -2 10 10 9
24 -2 25 3 28 41 37 23 5 42 13 42 18 0 5 -5 6 -12 2 -7 -5 -8 -3 -3 5 4 8 20
11 36 9 25 -4 30 0 44 34 8 22 13 44 10 49 -4 5 0 9 7 9 9 0 9 3 -2 10 -13 8
-12 10 3 10 20 0 23 20 5 38 -9 9 -7 12 9 12 23 0 40 17 28 28 -3 3 -10 0 -15
-8 -6 -8 -10 -10 -10 -5 0 19 15 32 32 30 11 -2 17 3 16 13 -3 44 3 60 27 66
15 4 22 11 19 20 -3 8 -1 17 5 21 6 3 11 15 11 25 0 10 9 21 19 25 11 3 29 26
40 50 12 25 26 46 31 46 6 1 15 3 20 4 6 1 14 3 19 4 5 0 14 15 20 31 5 17 17
33 25 36 9 3 14 9 12 13 -3 4 9 16 25 26 29 20 37 35 19 35 -5 0 -10 5 -10 11
0 7 10 9 25 7 21 -4 25 -1 25 18 0 22 43 76 58 71 13 -4 54 31 44 37 -6 3 -12
0 -15 -6 -2 -7 -7 -10 -11 -7 -3 3 6 16 21 30 15 13 21 16 14 7 -8 -11 -9 -18
-3 -18 6 0 14 5 18 11 4 8 9 7 14 -2 5 -7 8 9 7 37 0 28 2 55 6 61 3 5 7 97 7
204 1 270 2 259 -12 258 -7 0 -78 -22 -158 -48z m-356 -493 c11 -29 22 -56 25
-60 3 -4 35 -3 71 1 36 5 67 6 70 4 3 -3 -20 -28 -51 -57 l-55 -51 23 -60 c12
-32 21 -60 19 -62 -2 -3 -30 9 -62 25 l-57 29 -65 -49 c-35 -27 -67 -47 -69
-44 -3 2 4 30 16 61 12 31 21 61 21 68 0 7 -23 25 -50 40 -47 26 -58 47 -25
47 8 0 36 5 63 11 l49 10 24 70 c13 38 26 69 29 69 3 0 14 -24 24 -52z m226
-278 c0 -5 -5 -10 -11 -10 -5 0 -7 5 -4 10 3 6 8 10 11 10 2 0 4 -4 4 -10z
m-594 -237 c6 -2 41 3 78 11 l68 14 -58 -59 -58 -59 23 -55 c13 -31 21 -58 18
-62 -3 -3 -31 7 -62 21 l-57 26 -61 -50 c-59 -48 -86 -62 -71 -39 3 6 14 37
24 70 l18 58 -54 28 c-30 15 -51 30 -46 34 4 3 30 12 57 19 74 19 79 23 99 87
11 32 22 62 24 67 3 5 15 -17 27 -49 12 -33 26 -60 31 -62z m388 -48 c-4 -8
-10 -12 -15 -9 -14 8 -10 24 6 24 9 0 12 -6 9 -15z m-77 -157 c-3 -8 -6 -5 -6
6 -1 11 2 17 5 13 3 -3 4 -12 1 -19z m-7 -51 c0 -8 -7 -14 -15 -14 -11 0 -12
4 -4 14 6 7 13 13 15 13 2 0 4 -6 4 -13z m-739 -128 l22 -61 36 6 c20 3 54 9
76 12 l40 6 -57 -58 -58 -59 21 -54 c11 -29 18 -56 15 -58 -3 -3 -29 6 -59 20
l-55 25 -36 -37 c-32 -33 -96 -78 -96 -68 0 2 9 30 20 62 11 32 20 64 20 70 0
7 -23 22 -51 34 -28 13 -49 25 -46 28 3 3 34 15 68 28 l63 22 24 72 c13 39 25
71 27 71 2 0 14 -27 26 -61z m389 -353 c0 -2 -7 -7 -16 -10 -8 -3 -12 -2 -9 4
6 10 25 14 25 6z"/>
<path d="M5399 8313 c-13 -16 -12 -17 4 -4 9 7 17 15 17 17 0 8 -8 3 -21 -13z"/>
<path d="M5960 8165 c7 -8 19 -15 27 -15 10 0 8 -6 -7 -22 -34 -37 -4 -40 174
-16 93 12 160 26 152 30 -25 14 -201 38 -280 38 -69 0 -77 -2 -66 -15z"/>
<path d="M6195 7978 c4 -10 12 -18 17 -18 6 0 4 -8 -3 -17 -13 -16 -12 -17 3
-4 10 7 15 18 11 23 -3 6 0 8 8 6 8 -3 13 -10 12 -15 -1 -5 7 -10 18 -10 10
-1 19 5 19 13 0 16 26 19 35 4 3 -6 -1 -7 -9 -4 -13 5 -15 0 -9 -26 4 -21 2
-31 -4 -27 -6 4 -9 -8 -8 -30 1 -29 5 -37 23 -39 12 -2 22 0 22 4 0 17 -13 22
-27 11 -8 -7 -13 -8 -13 -1 0 17 31 23 45 8 10 -10 11 -16 2 -25 -8 -8 -8 -11
1 -11 18 0 15 -14 -6 -27 -15 -9 -19 -8 -19 3 0 7 4 11 9 8 4 -3 8 0 8 6 0 7
-6 10 -12 8 -7 -3 -13 -10 -13 -16 0 -6 -6 -17 -12 -24 -7 -6 -13 -16 -13 -22
0 -5 7 -1 16 10 13 15 15 16 10 2 -6 -21 13 -28 74 -27 65 1 382 -20 475 -31
133 -16 133 -16 78 33 -83 73 -236 184 -295 216 -56 29 -61 30 -205 30 -125 0
-151 -3 -167 -17 -18 -16 -19 -16 -13 0 5 14 2 16 -17 8 -16 -6 -27 -5 -35 3
-9 9 -11 8 -6 -5z m129 -70 c3 -17 -1 -28 -10 -32 -15 -6 -20 9 -5 18 5 3 7
16 4 29 -3 12 -3 20 0 17 3 -3 8 -17 11 -32z m11 -137 c-3 -5 5 -12 17 -14 20
-4 19 -4 -4 -6 -27 -1 -35 8 -21 22 9 10 15 8 8 -2z"/>
<path d="M6260 7870 c-9 -6 -10 -10 -3 -10 6 0 15 5 18 10 8 12 4 12 -15 0z"/>
<path d="M6262 7811 c7 -9 13 -18 15 -20 1 -2 1 5 0 16 0 11 -7 20 -14 20 -10
0 -10 -4 -1 -16z"/>
<path d="M6240 7800 c0 -5 5 -10 11 -10 5 0 7 5 4 10 -3 6 -8 10 -11 10 -2 0
-4 -4 -4 -10z"/>
<path d="M6685 7530 c-60 -4 -123 -8 -139 -9 -38 -1 -28 -12 13 -13 26 -1 29
-3 20 -20 -6 -10 -6 -18 0 -18 5 0 12 12 16 27 5 21 8 24 15 13 6 -9 5 -19 0
-24 -14 -14 -12 -46 2 -46 6 0 9 -3 5 -6 -3 -3 0 -12 6 -19 10 -10 15 -9 25 6
17 24 34 25 25 2 -6 -16 -5 -16 11 -3 21 16 49 23 40 9 -3 -5 -9 -7 -14 -4 -8
5 -28 -14 -28 -28 0 -5 -3 -12 -7 -15 -4 -4 -5 -2 -3 3 2 6 -1 10 -7 10 -5 0
-9 -4 -7 -9 2 -5 -5 -5 -15 -2 -12 5 -15 4 -8 -3 17 -16 51 -17 71 -1 18 14
18 14 2 -6 -11 -13 -14 -24 -8 -30 6 -6 6 -15 0 -24 -9 -13 -10 -13 -10 0 0
13 -1 13 -10 0 -5 -8 -12 -12 -15 -8 -3 3 1 12 9 21 8 8 12 17 9 21 -12 12
-23 6 -23 -12 0 -10 -5 -23 -12 -30 -9 -9 -7 -12 13 -13 13 0 18 -3 11 -6 -6
-2 -10 -8 -7 -13 3 -4 -2 -11 -11 -14 -12 -5 -15 -2 -10 9 3 9 2 13 -4 10 -6
-3 -10 -14 -10 -23 0 -15 -2 -15 -10 -2 -8 13 -10 13 -10 -1 0 -11 -10 -16
-31 -17 -17 0 -34 -3 -37 -7 -3 -3 16 -4 43 -1 28 3 154 8 280 12 213 6 329 1
525 -23 l55 -6 -65 73 c-36 41 -99 109 -140 153 l-75 79 -110 9 c-124 9 -210
9 -370 -1z m-20 -60 c-3 -5 4 -11 17 -11 20 -1 21 -2 3 -6 -11 -3 -28 -12 -37
-21 -16 -14 -18 -14 -18 1 0 8 -5 18 -10 20 -6 3 -5 4 2 3 7 -1 19 3 26 11 16
15 26 17 17 3z"/>
<path d="M4100 7521 c0 -6 4 -13 10 -16 6 -3 7 1 4 9 -7 18 -14 21 -14 7z"/>
<path d="M6641 7344 c0 -11 3 -14 6 -6 3 7 2 16 -1 19 -3 4 -6 -2 -5 -13z"/>
<path d="M3620 6920 c13 -24 23 -30 37 -22 8 5 1 14 -18 24 -28 17 -29 17 -19
-2z"/>
<path d="M3680 6881 c0 -6 5 -13 12 -17 6 -4 8 -3 4 4 -3 5 0 13 6 15 8 3 6 6
-4 6 -10 1 -18 -3 -18 -8z"/>
<path d="M7033 6764 c11 -4 16 -12 13 -20 -4 -10 -2 -13 7 -7 21 13 35 12 42
-4 3 -9 3 -18 0 -21 -3 -3 -5 0 -5 6 0 7 -7 12 -17 12 -14 0 -14 -2 3 -21 10
-11 14 -20 9 -19 -22 5 -27 -1 -14 -17 10 -11 10 -14 2 -9 -19 11 -16 -5 4
-19 15 -12 16 -14 1 -29 -14 -14 -17 -14 -22 0 -3 8 -2 12 3 9 5 -3 12 -2 15
3 2 4 -3 13 -13 19 -16 10 -18 8 -15 -12 3 -30 13 -47 24 -40 5 3 11 1 15 -5
6 -9 -7 -14 -27 -11 -5 0 -8 -3 -8 -9 0 -5 6 -10 13 -10 19 0 36 20 31 35 -3
7 2 15 12 19 14 5 15 4 4 -9 -9 -11 -9 -15 -1 -15 7 0 9 -4 6 -10 -3 -5 -1
-10 5 -10 7 0 10 7 6 15 -3 8 -1 15 3 15 5 0 11 -5 13 -11 3 -9 25 -9 88 0
116 15 333 14 475 -4 65 -8 121 -13 123 -10 2 2 -16 39 -41 82 l-45 78 -88 13
c-86 12 -657 27 -621 16z"/>
<path d="M7039 6690 l-24 -19 25 0 c14 0 19 3 12 6 -10 4 -9 8 5 19 10 7 15
14 12 14 -4 0 -17 -9 -30 -20z"/>
<path d="M3404 6600 c1 -32 9 -41 23 -26 5 5 3 6 -4 2 -7 -4 -13 -3 -13 2 0
14 26 33 33 25 4 -3 7 2 7 12 0 15 -3 16 -12 7 -15 -15 -32 -16 -23 -2 3 6 2
10 -3 10 -5 0 -9 -14 -8 -30z"/>
<path d="M3417 6519 c7 -7 15 -10 18 -7 3 3 -2 9 -12 12 -14 6 -15 5 -6 -5z"/>
<path d="M7297 6493 c-2 -1 -47 -3 -100 -4 -54 -1 -99 -5 -102 -9 -3 -5 -22
-6 -43 -3 -27 4 -42 1 -51 -11 -8 -9 -11 -19 -7 -23 3 -3 6 -1 6 6 0 7 5 9 10
6 6 -3 10 -15 10 -26 0 -13 4 -18 11 -13 9 5 10 -1 5 -20 -5 -20 -4 -26 5 -20
8 4 9 3 5 -4 -4 -7 -19 -12 -34 -12 -20 0 -23 -3 -13 -9 19 -12 103 19 246 92
74 38 101 55 82 54 -15 -1 -29 -3 -30 -4z m-254 -36 c7 -7 13 -19 15 -27 3
-10 -2 -9 -17 4 -20 18 -28 36 -15 36 3 0 11 -6 17 -13z"/>
<path d="M6980 6179 c-20 -5 -15 -7 23 -8 26 -1 47 2 47 7 0 10 -39 11 -70 1z"/>
<path d="M2575 5815 c-44 -7 -179 -20 -300 -30 -121 -9 -225 -18 -231 -20 -6
-2 -15 -30 -18 -62 -4 -32 -10 -73 -13 -92 l-6 -34 294 8 c162 4 306 8 322 9
28 1 36 11 15 19 -8 4 -7 6 4 6 9 1 19 -5 21 -11 3 -7 6 -3 6 10 1 12 7 22 16
22 18 0 20 16 3 26 -6 4 -8 3 -4 -4 8 -14 -33 -27 -45 -15 -5 5 -7 17 -3 27 6
16 7 16 19 -1 11 -15 12 -15 11 6 0 12 -8 26 -16 31 -13 9 -13 10 0 10 11 1
10 4 -4 15 -17 13 -17 15 -4 15 10 0 22 14 29 35 7 19 20 36 28 38 34 10 -48
4 -124 -8z m87 -17 c-7 -7 -12 -8 -12 -2 0 14 12 26 19 19 2 -3 -1 -11 -7 -17z
m-32 3 c0 -5 -9 -7 -20 -4 -11 3 -20 7 -20 9 0 2 9 4 20 4 11 0 20 -4 20 -9z
m-5 -110 c3 -5 2 -12 -3 -15 -5 -3 -9 1 -9 9 0 17 3 19 12 6z"/>
<path d="M2708 5793 c7 -3 16 -2 19 1 4 3 -2 6 -13 5 -11 0 -14 -3 -6 -6z"/>
<path d="M2673 5763 c4 -6 1 -14 -5 -17 -11 -5 -10 -7 0 -12 7 -3 17 -15 23
-27 9 -20 9 -20 -4 -4 -19 23 -30 22 -15 -3 7 -11 19 -20 26 -20 14 0 13 31
-2 42 -6 4 1 16 15 27 13 11 19 20 12 21 -6 0 -13 -6 -16 -12 -3 -10 -8 -9
-22 2 -10 8 -16 10 -12 3z"/>
<path d="M2746 5727 c3 -10 9 -15 12 -12 3 3 0 11 -7 18 -10 9 -11 8 -5 -6z"/>
<path d="M2705 5520 c4 -6 11 -8 16 -5 14 9 11 15 -7 15 -8 0 -12 -5 -9 -10z"/>
<path d="M7275 5500 c-3 -6 1 -7 9 -4 18 7 21 14 7 14 -6 0 -13 -4 -16 -10z"/>
<path d="M2678 5415 c-17 -22 -16 -23 3 -28 16 -4 18 -3 9 8 -8 10 -8 14 1 17
7 2 10 9 8 15 -2 6 -12 1 -21 -12z"/>
<path d="M2660 5336 c0 -2 8 -10 18 -17 15 -13 16 -12 3 4 -13 16 -21 21 -21
13z"/>
<path d="M2630 5326 c0 -2 7 -7 16 -10 8 -3 12 -2 9 4 -6 10 -25 14 -25 6z"/>
<path d="M7356 4567 c3 -10 9 -15 12 -12 3 3 0 11 -7 18 -10 9 -11 8 -5 -6z"/>
<path d="M7385 4371 c-3 -6 4 -8 16 -6 l22 4 -21 -20 c-12 -11 -22 -22 -22
-24 0 -11 27 8 43 30 18 25 18 25 -7 25 -14 0 -27 -4 -31 -9z"/>
<path d="M7032 8498 c-7 -7 -12 -18 -12 -25 0 -14 57 -53 78 -53 20 0 14 48
-10 70 -25 23 -39 25 -56 8z"/>
<path d="M2725 3890 c-3 -6 1 -7 9 -4 18 7 21 14 7 14 -6 0 -13 -4 -16 -10z"/>
<path d="M3476 1214 c-9 -22 -8 -24 9 -24 8 0 15 6 15 14 0 22 -17 28 -24 10z"/>
<path d="M4300 1221 c0 -5 -3 -16 -6 -25 -4 -11 -1 -16 10 -16 18 0 22 35 6
45 -5 3 -10 2 -10 -4z"/>
<path d="M5136 1214 c-9 -23 -8 -24 13 -24 14 0 18 5 14 20 -6 24 -19 26 -27
4z"/>
<path d="M5876 1244 c-30 -29 -10 -94 28 -94 44 0 66 71 30 97 -23 17 -39 16
-58 -3z"/>
<path d="M6110 1235 c0 -24 3 -26 33 -23 24 2 32 8 32 23 0 15 -8 21 -32 23
-30 3 -33 1 -33 -23z"/>
<path d="M6727 1210 c-4 -15 0 -20 14 -20 17 0 18 3 9 20 -6 11 -12 20 -14 20
-2 0 -6 -9 -9 -20z"/>
</g>
</svg>
